<svg xmlns="http://www.w3.org/2000/svg" viewBox="0 0 48 48" width="48px" height="48px">
  <path fill="#a70b52" d="M24,4C12.954,4,4,12.954,4,24s8.954,20,20,20s20-8.954,20-20S35.046,4,24,4z"/>
  <path fill="#ffffff" d="M26.5,32h-2.5V21h-1v9h3.5V32z"/>
  <path fill="#ffffff" d="M33,27h-6.5v-1H34c0,0.2,0,0.4,0,0.6c0,6-4.9,10.9-10.9,10.9S12.2,32.6,12.2,26.6S17.1,15.7,23.1,15.7c0.2,0,0.3,0,0.5,0v1c-0.2,0-0.3,0-0.5,0c-5.5,0-9.9,4.4-9.9,9.9s4.4,9.9,9.9,9.9c5.3,0,9.7-4.2,9.9-9.5H33z"/>
  <path fill="#ffffff" d="M19.5,24c0,1.4-1.1,2.5-2.5,2.5s-2.5-1.1-2.5-2.5s1.1-2.5,2.5-2.5S19.5,22.6,19.5,24z"/>
  <path fill="#808183" d="M36,32h9v-2.5h-6V18h-3V32z"/>
  <path fill="#808183" d="M44,19.5c-1-0.8-2.2-1.2-3.7-1.2c-1.8,0-3.2,0.5-4.2,1.6c-1.1,1.1-1.6,2.6-1.6,4.5c0,2,0.6,3.7,1.7,4.8c0.8,0.8,2,1.3,3.2,1.3c2.8,0,3.5-1.7,3.5-1.7V32h2.5v-6.5h-5v2h2.5c0,0,0,2.5-2.4,2.5c-0.6,0-1.2-0.2-1.6-0.6c-0.7-0.7-1-1.8-1-3.2c0-2.4,0.9-3.8,2.5-3.8c1,0,1.7,0.6,1.9,1.5h3.2C45.8,21.3,45.4,20.5,44,19.5z"/>
</svg>