<svg xmlns="http://www.w3.org/2000/svg" viewBox="0 0 48 48" width="48px" height="48px">
  <path fill="#cc2131" d="M6.8,29.8c-3.7,0-6.1-2.6-6.1-5.8c0-3.2,2.5-5.8,6.1-5.8h34.5c3.7,0,6.1,2.6,6.1,5.8c0,3.2-2.5,5.8-6.1,5.8H6.8z"/>
  <path fill="#ffffff" d="M6.8,20.2c-2.9,0-4.7,1.9-4.7,4.3c0,2.4,1.8,4.3,4.7,4.3h34.5c2.9,0,4.7-1.9,4.7-4.3c0-2.4-1.8-4.3-4.7-4.3H6.8z"/>
  <path fill="#cc2131" d="M5.3,21.4h1.7l2.3,3.8v-3.8h1.7v5.4h-1.7l-2.3-3.8v3.8H5.3V21.4z"/>
  <path fill="#cc2131" d="M20.2,21.9h1.6v0.7h0.9v0.5h-0.9v3.6h-1.6v-3.6h-0.9v-0.5h0.9V21.9z"/>
  <path fill="#cc2131" d="M12,23.2h1.6v3.6h-1.6V23.2z"/>
  <path fill="#cc2131" d="M12,21.4h1.6v1.1h-1.6V21.4z"/>
  <path fill="#cc2131" d="M41.2,25c0,0,0,0.5,0,0.8c0,0.6-0.3,0.8-0.7,0.8c-0.3,0-0.7-0.2-0.7-0.8c0-0.2,0-0.8,0-0.8s0-0.5,0-0.8c0-0.6,0.3-0.8,0.7-0.8c0.3,0,0.7,0.2,0.7,0.8C41.2,24.2,41.2,24.5,41.2,25z M40.6,23c-1.3,0-2.4,0.9-2.4,2c0,1.1,1.1,2,2.4,2c1.3,0,2.4-0.9,2.4-2C43,23.9,41.9,23,40.6,23z"/>
  <path fill="#cc2131" d="M36,21.4h1.6v5.4h-1.6v-0.2c-0.6,0.4-1.3,0.4-1.9,0.1c-0.1-0.1-1.1-0.5-1.1-1.8c0-1,0.9-2,2.1-1.9c0.4,0,0.7,0.2,0.9,0.3V21.4z M36,26.1v-0.6c0-0.6-0.4-0.7-0.6-0.7c-0.3,0-0.6,0.1-0.6,0.7c0,0.2,0,0.6,0,0.6s0,0.4,0,0.6c0,0.6,0.4,0.7,0.6,0.7c0.3,0,0.6-0.1,0.6-0.7V26.1z"/>
  <path fill="#cc2131" d="M17.4,23c0.6,0,1.8,0.4,1.8,1.8c0,0.3,0,2,0,2h-1.6v-2.4c0-0.3-0.3-0.7-0.7-0.7c-0.4,0-0.8,0.3-0.8,0.7v2.4h-1.6v-3.6h1.6c0,0,0,0.3,0,0.4C16.4,23.3,16.9,23,17.4,23z"/>
  <path fill="#cc2131" d="M30.7,23c0.6,0,1.8,0.4,1.8,1.8c0,0.3,0,2,0,2h-1.6v-2.4c0-0.3-0.3-0.7-0.7-0.7c-0.4,0-0.8,0.3-0.8,0.7v2.4h-1.6v-3.6h1.6c0,0,0,0.3,0,0.4C29.7,23.3,30.2,23,30.7,23z"/>
  <path fill="#cc2131" d="M24.2,24.4c0-0.3,0-0.5,0.1-0.7c0.1-0.2,0.4-0.3,0.6-0.3c0.2,0,0.4,0.1,0.6,0.3c0.1,0.2,0.1,0.4,0.1,0.7H24.2z M25.6,25.5c0,0,0,0,0,0.2c0,0.7-0.4,0.8-0.7,0.8c-0.2,0-0.7-0.1-0.7-0.8c0-0.2,0-0.7,0-0.7h3.1c0-1.1-1.1-2-2.4-2c-1.3,0-2.4,0.9-2.4,2c0,1.1,1.1,2,2.4,2c1.1,0,2-0.6,2.3-1.5H25.6z"/>
  <path fill="#cc2131" d="M43,22.7h-0.2v-1.2h0.5c0.3,0,0.4,0.1,0.4,0.4c0,0.2-0.1,0.3-0.3,0.3l0.4,0.5h-0.2l-0.3-0.5h-0.2V22.7z M43.2,22c0.2,0,0.3,0,0.3-0.2c0-0.2-0.1-0.2-0.3-0.2h-0.3v0.4H43.2z"/>
  <path fill="#cc2131" d="M42.2,22c0-0.6,0.5-1.1,1.1-1.1c0.6,0,1.1,0.5,1.1,1.1c0,0.6-0.5,1.1-1.1,1.1C42.7,23.1,42.2,22.6,42.2,22z M44.3,22c0-0.5-0.4-0.9-0.9-0.9c-0.5,0-0.9,0.4-0.9,0.9c0,0.5,0.4,0.9,0.9,0.9C43.9,22.9,44.3,22.5,44.3,22z"/>
</svg>