<svg width="160" height="160" viewBox="0 0 160 160" fill="none" xmlns="http://www.w3.org/2000/svg">
  <circle cx="80" cy="80" r="75" stroke="#5F5F5F" stroke-width="2"/>
  <path d="M44.8 114V105.6L72.4 68.8C74.8 65.6 76.6667 62.8 78 60.4C79.3333 58 80.2667 55.8667 80.8 54C81.3333 52.1333 81.6 50.4 81.6 48.8C81.6 45.6 80.8 43.2 79.2 41.6C77.6 40 75.2 39.2 72 39.2C68.8 39.2 66.2667 40.1333 64.4 42C62.5333 43.8667 61.6 46.5333 61.6 50H44C44 45.2 45.0667 40.9333 47.2 37.2C49.3333 33.4667 52.4 30.5333 56.4 28.4C60.4 26.2667 65.0667 25.2 70.4 25.2C76.2667 25.2 81.2 26.2667 85.2 28.4C89.2 30.5333 92.1333 33.4667 94 37.2C95.8667 40.9333 96.8 45.2 96.8 50C96.8 53.2 96.2667 56.4 95.2 59.6C94.1333 62.8 92.2667 66.4 89.6 70.4C87.0667 74.4 83.4667 79.2 78.8 84.8L63.2 102.4V102.8H97.6V114H44.8Z" fill="#7B99FF"/>
  <path d="M116 114V94.4H102.4V83.2L116.8 44H132V82.4H138.4V94.4H132V114H116ZM116.8 82.4V65.6L110.4 82.4H116.8Z" fill="#7B99FF"/>
</svg>
