<svg width="20" height="21" viewBox="0 0 20 21" fill="none" xmlns="http://www.w3.org/2000/svg">
<path d="M10.9415 10.498C10.9415 9.97969 10.5219 9.5595 10.0044 9.5595C9.48691 9.5595 9.06738 9.97969 9.06738 10.498C9.06738 11.0163 9.48691 11.4365 10.0044 11.4365C10.5219 11.4365 10.9415 11.0163 10.9415 10.498Z" fill="#BABABA"/>
<path d="M10.9415 5.49411C10.9415 4.97578 10.5219 4.55559 10.0044 4.55559C9.48691 4.55559 9.06738 4.97578 9.06738 5.49411C9.06738 6.01243 9.48691 6.43262 10.0044 6.43262C10.5219 6.43262 10.9415 6.01243 10.9415 5.49411Z" fill="#BABABA"/>
<path d="M10.9415 15.5058C10.9415 14.9875 10.5219 14.5673 10.0044 14.5673C9.48691 14.5673 9.06738 14.9875 9.06738 15.5058C9.06738 16.0242 9.48691 16.4443 10.0044 16.4443C10.5219 16.4443 10.9415 16.0242 10.9415 15.5058Z" fill="#BABABA"/>
</svg>
