<svg width="17" height="17" viewBox="0 0 17 17" fill="none" xmlns="http://www.w3.org/2000/svg">
<path d="M8.90752 0.5C7.33255 0.5 5.79295 0.969192 4.48341 1.84824C3.17388 2.72729 2.15322 3.97672 1.5505 5.43853C0.947786 6.90034 0.790089 8.50887 1.09735 10.0607C1.40461 11.6126 2.16303 13.038 3.2767 14.1569C4.39037 15.2757 5.80928 16.0376 7.35398 16.3463C8.89869 16.655 10.4998 16.4965 11.9549 15.891C13.41 15.2855 14.6537 14.2602 15.5287 12.9446C16.4037 11.629 16.8707 10.0822 16.8707 8.5C16.8667 6.37952 16.0264 4.34705 14.5339 2.84764C13.0414 1.34823 11.0182 0.504066 8.90752 0.5ZM5.23221 9.42307C5.05048 9.42307 4.87283 9.36894 4.72173 9.26751C4.57063 9.16608 4.45286 9.02191 4.38332 8.85324C4.31378 8.68457 4.29558 8.49897 4.33103 8.31991C4.36649 8.14085 4.454 7.97638 4.5825 7.84728C4.711 7.71819 4.87472 7.63027 5.05295 7.59466C5.23119 7.55904 5.41593 7.57732 5.58383 7.64719C5.75172 7.71705 5.89522 7.83537 5.99619 7.98716C6.09715 8.13896 6.15104 8.31743 6.15104 8.5C6.15104 8.74481 6.05423 8.9796 5.88192 9.15271C5.7096 9.32582 5.4759 9.42307 5.23221 9.42307ZM8.90752 9.42307C8.7258 9.42307 8.54815 9.36894 8.39705 9.26751C8.24595 9.16608 8.12818 9.02191 8.05864 8.85324C7.98909 8.68457 7.9709 8.49897 8.00635 8.31991C8.0418 8.14085 8.12931 7.97638 8.25781 7.84728C8.38631 7.71819 8.55003 7.63027 8.72827 7.59466C8.9065 7.55904 9.09125 7.57732 9.25914 7.64719C9.42704 7.71705 9.57054 7.83537 9.6715 7.98716C9.77246 8.13896 9.82635 8.31743 9.82635 8.5C9.82635 8.74481 9.72955 8.9796 9.55723 9.15271C9.38492 9.32582 9.15121 9.42307 8.90752 9.42307ZM12.5828 9.42307C12.4011 9.42307 12.2235 9.36894 12.0724 9.26751C11.9213 9.16608 11.8035 9.02191 11.734 8.85324C11.6644 8.68457 11.6462 8.49897 11.6817 8.31991C11.7171 8.14085 11.8046 7.97638 11.9331 7.84728C12.0616 7.71819 12.2253 7.63027 12.4036 7.59466C12.5818 7.55904 12.7666 7.57732 12.9345 7.64719C13.1024 7.71705 13.2459 7.83537 13.3468 7.98716C13.4478 8.13896 13.5017 8.31743 13.5017 8.5C13.5017 8.74481 13.4049 8.9796 13.2325 9.15271C13.0602 9.32582 12.8265 9.42307 12.5828 9.42307Z" fill="#7B99FF"/>
</svg>
