<svg width="17" height="17" viewBox="0 0 17 17" fill="none" xmlns="http://www.w3.org/2000/svg">
<path d="M12.4467 1.38867C11.7599 1.38867 11.0825 1.54932 10.4682 1.85788C9.85395 2.16645 9.3196 2.61447 8.90752 3.16645C8.35041 2.4202 7.5737 1.86897 6.68742 1.59083C5.80114 1.3127 4.85021 1.32177 3.96934 1.61675C3.08847 1.91173 2.32231 2.47767 1.7794 3.2344C1.23648 3.99114 0.944336 4.90031 0.944336 5.83312C0.944336 11.159 8.31028 15.359 8.61996 15.5368C8.70771 15.5864 8.80687 15.6119 8.90752 15.6109C9.00826 15.6126 9.1076 15.587 9.19508 15.5368C10.5515 14.7402 11.8238 13.807 12.9923 12.7516C15.5656 10.4257 16.8707 8.09978 16.8707 5.83312C16.8707 4.65438 16.4046 3.52391 15.5749 2.69042C14.7453 1.85692 13.62 1.38867 12.4467 1.38867Z" fill="#7B99FF"/>
</svg>
