<svg width="17" height="17" viewBox="0 0 17 17" fill="none" xmlns="http://www.w3.org/2000/svg">
<path d="M6.0713 7.97969C6.58106 7.97969 7.04836 7.74294 7.42638 7.37917C7.02988 6.66817 6.80355 5.86379 6.80355 5.09194C6.80355 4.43737 6.96145 3.81993 7.23938 3.27473C6.89467 3.06335 6.49177 2.93945 6.05959 2.93945C4.79636 2.93945 3.77246 3.9782 3.77246 5.2594C3.77246 6.54078 4.80807 7.97969 6.0713 7.97969Z" fill="#7B99FF"/>
<path d="M7.60952 9.0797C7.3863 9.03154 7.15521 9.00488 6.91771 9.00488H5.21682C3.40688 9.00488 1.93945 10.4769 1.93945 12.2928L1.94714 12.6816C1.94714 13.1889 2.35717 13.6003 2.8629 13.6003H4.54001C4.62235 11.58 5.86051 9.85761 7.60952 9.0797Z" fill="#7B99FF"/>
<path d="M10.7519 8.4646C12.3181 8.4646 13.5734 6.68029 13.5734 5.09157C13.5734 3.50284 12.3036 2.21484 10.7374 2.21484C9.17118 2.21484 7.90137 3.50284 7.90137 5.09157C7.90155 6.68029 9.18564 8.4646 10.7519 8.4646Z" fill="#7B99FF"/>
<path d="M15.8656 13.8134C15.8656 11.5616 14.0461 9.73633 11.8018 9.73633H9.69268C7.44836 9.73633 5.62891 11.5616 5.62891 13.8134L5.6386 14.2955C5.6386 14.9245 6.1469 15.4346 6.77412 15.4346H14.7399C15.367 15.4346 15.8754 14.9245 15.8754 14.2955L15.8656 13.8134Z" fill="#7B99FF"/>
</svg>
